# 3ds Max Wavefront OBJ Exporter v0.97b - (c)2007 guruware
# File Created: 28.10.2017 16:08:12

mtllib mirror.mtl

#
# object mirror
#

v  -0.0848 1.4552 0.1308
v  0.0930 1.4466 0.1853
v  0.1003 1.3971 0.1538
v  -0.0775 1.4057 0.0994
v  0.9989 1.0697 -0.0072
v  0.9839 1.0878 -0.0054
v  1.0039 1.0906 0.0001
v  1.0297 1.0769 0.0015
v  0.9723 1.1137 -0.0021
v  0.9067 1.0795 -0.0274
v  0.9337 1.0940 -0.0159
v  0.9570 1.0887 -0.0118
v  0.9485 1.0737 -0.0175
v  0.8855 1.1451 -0.0137
v  0.9232 1.1371 -0.0080
v  0.9218 1.1135 -0.0140
v  0.8927 1.0994 -0.0232
v  0.9040 1.1573 -0.0073
v  0.9426 1.1425 -0.0019
v  0.9698 1.1639 0.0085
v  0.9717 1.1410 0.0046
v  1.0672 1.1324 0.0220
v  1.0312 1.1196 0.0126
v  1.0057 1.1352 0.0109
v  1.0243 1.1485 0.0185
v  1.0572 1.0986 0.0113
v  1.0211 1.1004 0.0062
# 27 vertices

vn -0.2695 -0.5439 0.7947
vn -0.2107 -0.2765 0.9376
vn -0.2244 -0.2474 0.9426
vn -0.2111 -0.2459 0.9460
vn -0.1735 -0.2576 0.9505
vn -0.2229 -0.2300 0.9473
vn -0.2168 -0.3176 0.9231
vn -0.2210 -0.2665 0.9382
vn -0.2323 -0.2328 0.9444
vn -0.2432 -0.2266 0.9431
vn -0.1903 -0.2237 0.9559
vn -0.2129 -0.2352 0.9483
vn -0.2057 -0.2259 0.9522
vn -0.1972 -0.2630 0.9444
vn -0.1993 -0.2165 0.9557
vn -0.2212 -0.2203 0.9500
vn -0.2227 -0.1845 0.9573
vn -0.2228 -0.2112 0.9517
vn -0.1706 -0.2468 0.9539
vn -0.1800 -0.2222 0.9583
vn -0.2074 -0.2413 0.9480
vn -0.1943 -0.2603 0.9458
vn -0.1535 -0.2488 0.9563
vn -0.1853 -0.2300 0.9554
# 24 vertex normals

g mirror
usemtl Material__1299
s off
f 4//1 3//1 2//1 1//1 
s 1
f 8//5 7//4 6//3 5//2 
f 6//3 7//4 9//6 
f 13//10 12//9 11//8 10//7 
f 11//8 12//9 9//6 
f 17//14 16//13 15//12 14//11 
f 15//12 16//13 9//6 
f 14//11 15//12 19//16 18//15 
f 19//16 15//12 9//6 
f 18//15 19//16 21//18 20//17 
f 21//18 19//16 9//6 
f 25//22 24//21 23//20 22//19 
f 23//20 24//21 9//6 
f 22//19 23//20 27//24 26//23 
f 27//24 23//20 9//6 
f 26//23 27//24 7//4 8//5 
f 7//4 27//24 9//6 
f 5//2 6//3 12//9 13//10 
f 12//9 6//3 9//6 
f 20//17 21//18 24//21 25//22 
f 24//21 21//18 9//6 
f 10//7 11//8 16//13 17//14 
f 16//13 11//8 9//6 
# 12 polygons - 11 triangles

