# 3ds Max Wavefront OBJ Exporter v0.97b - (c)2007 guruware
# File Created: 28.10.2017 16:23:31

mtllib ruchnik.mtl

#
# object Box094
#

v  -0.0047 0.2200 0.0109
v  -0.0047 0.2280 0.0164
v  -0.0604 0.2289 0.0133
v  -0.0593 0.2214 0.0101
v  -0.0636 0.2333 -0.0034
v  -0.0604 0.2245 -0.0058
v  -0.0047 0.2213 -0.0066
v  0.0510 0.2245 -0.0058
v  0.0499 0.2214 0.0101
v  0.0543 0.2297 0.0101
v  0.0510 0.2289 0.0133
v  0.0543 0.2277 -0.0050
v  -0.0604 0.2378 -0.0201
v  -0.0593 0.2297 -0.0212
v  -0.0047 0.2387 -0.0233
v  -0.0047 0.2290 -0.0225
v  0.0499 0.2297 -0.0212
v  0.0510 0.2378 -0.0201
v  0.0543 0.2370 -0.0170
v  -0.0047 0.2377 0.0156
v  -0.0593 0.2369 0.0143
v  -0.0047 0.2454 -0.0002
v  -0.0604 0.2422 -0.0011
v  0.0543 0.2390 -0.0019
v  0.0510 0.2422 -0.0011
v  0.0499 0.2369 0.0143
v  -0.0593 0.2453 -0.0170
v  -0.0047 0.2467 -0.0178
v  0.0499 0.2453 -0.0170
# 29 vertices

vn 0.0000 -0.9026 0.4305
vn 0.0000 -0.2588 0.9659
vn -0.6769 -0.1905 0.7110
vn -0.5302 -0.7530 0.3897
vn -1.0000 -0.0000 0.0000
vn -0.6124 -0.7636 -0.2046
vn 0.0000 -0.9659 -0.2588
vn 0.4274 -0.8816 -0.2001
vn 0.4271 -0.8098 0.4022
vn 0.8105 0.1589 0.5638
vn 0.4884 -0.1369 0.8618
vn 0.7423 -0.6607 -0.1118
vn -0.6769 0.1905 -0.7110
vn -0.5302 -0.4573 -0.7140
vn -0.0000 0.2588 -0.9659
vn -0.0000 -0.5664 -0.8241
vn 0.4769 -0.4600 -0.7490
vn 0.4884 0.1369 -0.8618
vn 0.8105 -0.1589 -0.5638
vn 0.0000 0.5664 0.8241
vn -0.5302 0.4573 0.7140
vn -0.0000 0.9659 0.2588
vn -0.6124 0.7636 0.2046
vn 0.7423 0.6607 0.1118
vn 0.4274 0.8816 0.2001
vn 0.4769 0.4600 0.7489
vn -0.5302 0.7530 -0.3897
vn -0.0000 0.9026 -0.4305
vn 0.4271 0.8098 -0.4022
# 29 vertex normals

g Box094
usemtl Plastic_Black
s 2
f 1//1 2//2 3//3 4//4 
f 3//3 5//5 6//6 4//4 
f 6//6 7//7 1//1 4//4 
f 1//1 7//7 8//8 9//9 
f 10//10 11//11 9//9 8//8 12//12 
f 11//11 2//2 1//1 9//9 
f 6//6 5//5 13//13 14//14 
f 13//13 15//15 16//16 14//14 
f 16//16 7//7 6//6 14//14 
f 8//8 7//7 16//16 17//17 
f 16//16 15//15 18//18 17//17 
f 12//12 8//8 17//17 18//18 19//19 
f 3//3 2//2 20//20 21//21 
f 20//20 22//22 23//23 21//21 
f 23//23 5//5 3//3 21//21 
f 24//24 25//25 26//26 11//11 10//10 
f 25//25 22//22 20//20 26//26 
f 20//20 2//2 11//11 26//26 
f 13//13 5//5 23//23 27//27 
f 23//23 22//22 28//28 27//27 
f 28//28 15//15 13//13 27//27 
f 18//18 15//15 28//28 29//29 
f 28//28 22//22 25//25 29//29 
f 19//19 18//18 29//29 25//25 24//24 
# 24 polygons

#
# object Box095
#

v  0.0111 -0.0006 -0.0050
v  0.0111 0.2261 -0.0078
v  0.0111 0.2269 0.0028
v  0.0111 0.0002 0.0056
v  -0.0094 -0.0006 -0.0050
v  -0.0094 0.0002 0.0056
v  -0.0094 0.2269 0.0028
v  -0.0094 0.2261 -0.0078
v  0.0008 0.0003 0.0072
v  0.0008 -0.0007 -0.0066
v  0.0008 0.2270 0.0044
v  0.0008 0.2260 -0.0094
# 12 vertices

vn 0.8701 -0.0353 -0.4917
vn 0.8701 0.0353 0.4917
vn -0.8701 -0.0353 -0.4917
vn -0.8701 0.0353 0.4917
vn 0.0000 -0.9999 0.0123
vn -0.0000 0.9999 -0.0123
vn 0.0000 -0.0716 -0.9974
vn -0.0000 0.0716 0.9974
# 8 vertex normals

g Box095
usemtl blue_velvet
s 1
f 30//30 31//30 32//31 33//31 
f 34//32 35//33 36//33 37//32 
s 2
f 30//34 33//34 38//34 39//34 
f 40//35 41//35 37//35 36//35 
s 1
f 30//30 39//36 41//36 31//30 
f 32//31 40//37 38//37 33//31 
f 35//33 38//37 40//37 36//33 
f 37//32 41//36 39//36 34//32 
s 2
f 38//34 35//34 34//34 39//34 
f 40//35 32//35 31//35 41//35 
# 10 polygons

#
# object Object194
#

v  0.0616 0.2282 0.0033
v  0.0625 0.2291 -0.0046
v  0.0636 0.2333 -0.0034
v  0.0625 0.2306 0.0067
v  0.0616 0.2322 -0.0118
v  0.0625 0.2361 -0.0136
v  0.0616 0.2385 -0.0101
v  0.0625 0.2376 -0.0023
v  0.0616 0.2345 0.0049
v  0.0543 0.2318 -0.0147
v  0.0543 0.2370 -0.0170
v  0.0590 0.2370 -0.0170
v  0.0590 0.2318 -0.0147
v  0.0543 0.2403 -0.0124
v  0.0590 0.2403 -0.0124
v  0.0543 0.2390 -0.0019
v  0.0590 0.2390 -0.0019
v  0.0543 0.2349 0.0079
v  0.0590 0.2349 0.0079
v  0.0543 0.2297 0.0101
v  0.0590 0.2297 0.0101
v  0.0543 0.2264 0.0056
v  0.0590 0.2264 0.0056
v  0.0543 0.2277 -0.0050
v  0.0590 0.2277 -0.0050
# 25 vertices

vn 0.7481 -0.6596 0.0725
vn 0.7487 -0.6403 -0.1716
vn 1.0000 0.0000 -0.0000
vn 0.8590 -0.1325 0.4945
vn 0.7481 -0.5350 -0.3926
vn 0.8590 0.1325 -0.4945
vn 0.7481 0.6596 -0.0725
vn 0.7487 0.6403 0.1716
vn 0.7481 0.5350 0.3926
vn -0.0000 -0.7100 -0.7042
vn -0.0000 0.2588 -0.9659
vn 0.3665 0.2408 -0.8987
vn 0.3470 -0.6424 -0.6833
vn -0.0000 0.9670 -0.2549
vn 0.3470 0.8980 -0.2706
vn -0.0000 0.9659 0.2588
vn 0.2089 0.9446 0.2531
vn 0.0000 0.7100 0.7042
vn 0.3470 0.6424 0.6833
vn 0.0000 -0.2588 0.9659
vn 0.3665 -0.2408 0.8987
vn 0.0000 -0.9670 0.2549
vn 0.3470 -0.8980 0.2706
vn 0.0000 -0.9659 -0.2588
vn 0.2089 -0.9446 -0.2531
# 25 vertex normals

g Object194
usemtl Car_Red
s 4
f 42//38 43//39 44//40 45//41 
f 46//42 47//43 44//40 43//39 
f 48//44 49//45 44//40 47//43 
f 50//46 45//41 44//40 49//45 
f 51//47 52//48 53//49 54//50 
f 55//51 56//52 53//49 52//48 
f 48//44 47//43 53//49 56//52 
f 46//42 54//50 53//49 47//43 
f 55//51 57//53 58//54 56//52 
f 59//55 60//56 58//54 57//53 
f 50//46 49//45 58//54 60//56 
f 48//44 56//52 58//54 49//45 
f 59//55 61//57 62//58 60//56 
f 63//59 64//60 62//58 61//57 
f 42//38 45//41 62//58 64//60 
f 50//46 60//56 62//58 45//41 
f 63//59 65//61 66//62 64//60 
f 51//47 54//50 66//62 65//61 
f 46//42 43//39 66//62 54//50 
f 42//38 64//60 66//62 43//39 
# 20 polygons

