# 3ds Max Wavefront OBJ Exporter v0.97b - (c)2007 guruware
# File Created: 28.10.2017 17:40:26

mtllib setka.mtl

#
# object setka
#

v  0.0012 0.2731 -2.3893
v  -0.1752 0.2731 -2.3769
v  -0.1810 0.3455 -2.4007
v  0.0012 0.3454 -2.4166
v  -0.3310 0.2731 -2.3533
v  -0.3772 0.3457 -2.3660
v  -0.1875 0.4263 -2.4293
v  0.0012 0.4264 -2.4457
v  -0.4298 0.4259 -2.3767
v  0.1834 0.3455 -2.4007
v  0.1776 0.2731 -2.3769
v  0.3796 0.3457 -2.3660
v  0.3335 0.2731 -2.3533
v  0.1900 0.4263 -2.4293
v  0.4322 0.4259 -2.3767
v  -0.7775 0.2820 -2.1127
v  -0.8036 0.2858 -2.0905
v  -0.8033 0.3708 -2.1140
v  -0.7772 0.3670 -2.1369
v  -0.8248 0.2892 -2.0707
v  -0.8244 0.3742 -2.0931
v  -0.8240 0.4591 -2.1155
v  -0.8029 0.4557 -2.1374
v  -0.7768 0.4519 -2.1611
v  -0.6979 0.2731 -2.1665
v  -0.7423 0.2775 -2.1388
v  -0.7419 0.3625 -2.1634
v  -0.6975 0.3584 -2.1922
v  -0.7415 0.4475 -2.1880
v  -0.6971 0.4436 -2.2178
v  -0.5878 0.2671 -2.2168
v  -0.6454 0.2696 -2.1929
v  -0.6451 0.3555 -2.2210
v  -0.5875 0.3537 -2.2475
v  -0.6447 0.4414 -2.2492
v  -0.5871 0.4402 -2.2782
v  -0.4646 0.2648 -2.2564
v  -0.5277 0.2656 -2.2377
v  -0.5279 0.3514 -2.2689
v  -0.4697 0.3414 -2.2831
v  -0.5270 0.4364 -2.3001
v  -0.4640 0.4113 -2.3101
v  -0.3288 0.2645 -2.2911
v  -0.3977 0.2645 -2.2740
v  -0.4213 0.3206 -2.2886
v  -0.3974 0.3486 -2.3048
v  0.7798 0.2820 -2.1127
v  0.7794 0.3670 -2.1369
v  0.8055 0.3708 -2.1140
v  0.8059 0.2858 -2.0905
v  0.8270 0.2892 -2.0707
v  0.8267 0.3742 -2.0931
v  0.8263 0.4591 -2.1155
v  0.8052 0.4557 -2.1374
v  0.7791 0.4519 -2.1611
v  0.7002 0.2731 -2.1665
v  0.6998 0.3584 -2.1922
v  0.7442 0.3625 -2.1634
v  0.7445 0.2775 -2.1388
v  0.7438 0.4475 -2.1880
v  0.6994 0.4436 -2.2178
v  0.5901 0.2671 -2.2168
v  0.5897 0.3537 -2.2475
v  0.6473 0.3555 -2.2210
v  0.6477 0.2696 -2.1929
v  0.6470 0.4414 -2.2492
v  0.5894 0.4402 -2.2782
v  0.4669 0.2648 -2.2564
v  0.4720 0.3414 -2.2831
v  0.5302 0.3514 -2.2689
v  0.5300 0.2656 -2.2377
v  0.5293 0.4364 -2.3001
v  0.4663 0.4113 -2.3101
v  0.3311 0.2645 -2.2911
v  0.3997 0.3486 -2.3048
v  0.4236 0.3206 -2.2886
v  0.4000 0.2645 -2.2740
# 77 vertices

vn -0.0063 -0.3491 -0.9371
vn -0.1123 -0.3110 -0.9438
vn -0.1279 -0.3265 -0.9365
vn -0.0028 -0.3436 -0.9391
vn -0.1448 -0.2584 -0.9551
vn -0.1636 -0.2526 -0.9536
vn -0.1415 -0.3402 -0.9296
vn 0.0002 -0.3384 -0.9410
vn -0.1790 -0.2723 -0.9454
vn 0.1196 -0.3255 -0.9379
vn 0.1094 -0.3225 -0.9402
vn 0.1871 -0.2747 -0.9431
vn 0.1623 -0.2821 -0.9456
vn 0.1288 -0.3298 -0.9352
vn 0.2043 -0.2604 -0.9436
vn -0.6270 -0.2120 -0.7496
vn -0.6714 -0.1966 -0.7145
vn -0.6850 -0.1890 -0.7036
vn -0.6334 -0.2084 -0.7452
vn -0.6911 -0.1878 -0.6979
vn -0.7051 -0.1780 -0.6864
vn -0.7178 -0.1807 -0.6724
vn -0.6970 -0.1879 -0.6921
vn -0.6390 -0.2073 -0.7407
vn -0.4965 -0.2546 -0.8299
vn -0.5688 -0.2292 -0.7899
vn -0.5755 -0.2253 -0.7861
vn -0.5097 -0.2447 -0.8248
vn -0.5820 -0.2239 -0.7818
vn -0.5211 -0.2483 -0.8166
vn -0.3514 -0.3142 -0.8819
vn -0.4192 -0.2875 -0.8612
vn -0.4450 -0.2740 -0.8526
vn -0.3665 -0.3067 -0.8784
vn -0.4671 -0.2738 -0.8407
vn -0.3787 -0.3048 -0.8739
vn -0.2579 -0.3348 -0.9063
vn -0.2971 -0.3281 -0.8967
vn -0.3041 -0.3229 -0.8963
vn -0.2616 -0.3304 -0.9069
vn -0.3112 -0.3245 -0.8932
vn -0.2639 -0.3285 -0.9069
vn -0.2274 -0.3344 -0.9146
vn -0.2332 -0.3358 -0.9126
vn -0.2382 -0.3334 -0.9122
vn -0.2330 -0.3309 -0.9144
vn 0.6270 -0.2120 -0.7496
vn 0.6334 -0.2084 -0.7452
vn 0.6850 -0.1890 -0.7036
vn 0.6714 -0.1966 -0.7145
vn 0.6911 -0.1878 -0.6979
vn 0.7051 -0.1780 -0.6864
vn 0.7178 -0.1807 -0.6724
vn 0.6970 -0.1879 -0.6921
vn 0.6390 -0.2073 -0.7407
vn 0.4965 -0.2546 -0.8299
vn 0.5097 -0.2447 -0.8248
vn 0.5755 -0.2253 -0.7861
vn 0.5688 -0.2292 -0.7899
vn 0.5820 -0.2239 -0.7818
vn 0.5211 -0.2483 -0.8166
vn 0.3514 -0.3142 -0.8819
vn 0.3665 -0.3067 -0.8784
vn 0.4450 -0.2740 -0.8526
vn 0.4192 -0.2875 -0.8612
vn 0.4671 -0.2738 -0.8407
vn 0.3787 -0.3048 -0.8739
vn 0.2579 -0.3348 -0.9063
vn 0.2616 -0.3304 -0.9069
vn 0.3041 -0.3229 -0.8963
vn 0.2971 -0.3281 -0.8967
vn 0.3112 -0.3245 -0.8932
vn 0.2639 -0.3285 -0.9069
vn 0.2274 -0.3344 -0.9146
vn 0.2330 -0.3309 -0.9144
vn 0.2382 -0.3334 -0.9122
vn 0.2332 -0.3358 -0.9126
# 77 vertex normals

vt 0.6000 0.6000 0.6000
vt 0.0391 0.2330 0.5532
vt 0.1712 -0.0089 0.6433
vt 0.7504 0.3702 0.7039
vt -0.4564 -0.0912 0.4634
vt -0.4522 -0.4179 0.5114
vt 0.3185 -0.2796 0.7520
vt 0.9188 0.1128 0.8144
vt -0.4525 -0.7823 0.5523
vt 1.3296 0.7491 0.6433
vt 1.1609 0.9670 0.5532
vt 1.9541 1.1565 0.5114
vt 1.6564 1.2912 0.4634
vt 1.5187 0.5056 0.7520
vt 2.2881 1.0108 0.5523
vt 0.1113 0.4449 -0.4848
vt 0.0386 0.3791 -0.6683
vt 0.2111 0.1195 -0.5281
vt 0.2837 0.1850 -0.3386
vt -0.0196 0.3255 -0.8316
vt 0.1528 0.0662 -0.6994
vt 0.3252 -0.1930 -0.5671
vt 0.3835 -0.1401 -0.3879
vt 0.4561 -0.0748 -0.1925
vt 0.3386 0.6426 -0.0326
vt 0.2108 0.5332 -0.2664
vt 0.3833 0.2731 -0.1171
vt 0.5116 0.3813 0.1248
vt 0.5558 0.0130 0.0322
vt 0.6846 0.1201 0.2822
vt 0.6650 0.9056 0.4026
vt 0.4929 0.7690 0.1937
vt 0.6672 0.5050 0.3702
vt 0.8406 0.6388 0.5982
vt 0.8415 0.2409 0.5467
vt 1.0162 0.3720 0.7938
vt 1.0393 1.1931 0.7581
vt 0.8467 1.0464 0.5883
vt 1.0191 0.7804 0.7881
vt 1.1782 0.9440 0.9260
vt 1.1934 0.5190 0.9887
vt 1.3366 0.7408 1.1028
vt 1.4562 1.5064 1.0801
vt 1.2443 1.3476 0.9207
vt 1.2849 1.1195 0.9971
vt 1.4150 1.0879 1.1186
# 46 texture coords

g setka
usemtl Gun_Metal_Mesh_by___HYDRA__
s 1
f 1/1/1 2/2/2 3/3/3 4/4/4 
f 2/2/2 5/5/5 6/6/6 3/3/3 
f 4/4/4 3/3/3 7/7/7 8/8/8 
f 3/3/3 6/6/6 9/9/9 7/7/7 
f 1/1/1 4/4/4 10/10/10 11/11/11 
f 11/11/11 10/10/10 12/12/12 13/13/13 
f 4/4/4 8/8/8 14/14/14 10/10/10 
f 10/10/10 14/14/14 15/15/15 12/12/12 
f 16/16/16 17/17/17 18/18/18 19/19/19 
f 20/20/20 21/21/21 18/18/18 17/17/17 
f 22/22/22 23/23/23 18/18/18 21/21/21 
f 24/24/24 19/19/19 18/18/18 23/23/23 
f 25/25/25 26/26/26 27/27/27 28/28/28 
f 16/16/16 19/19/19 27/27/27 26/26/26 
f 24/24/24 29/29/29 27/27/27 19/19/19 
f 30/30/30 28/28/28 27/27/27 29/29/29 
f 31/31/31 32/32/32 33/33/33 34/34/34 
f 25/25/25 28/28/28 33/33/33 32/32/32 
f 30/30/30 35/35/35 33/33/33 28/28/28 
f 36/36/36 34/34/34 33/33/33 35/35/35 
f 37/37/37 38/38/38 39/39/39 40/40/40 
f 31/31/31 34/34/34 39/39/39 38/38/38 
f 36/36/36 41/41/41 39/39/39 34/34/34 
f 42/42/42 40/40/40 39/39/39 41/41/41 
f 43/43/43 44/44/44 45/45/45 46/46/46 
f 37/37/37 40/40/40 45/45/45 44/44/44 
f 42/42/42 46/46/46 45/45/45 40/40/40 
f 47/16/47 48/19/48 49/18/49 50/17/50 
f 51/20/51 50/17/50 49/18/49 52/21/52 
f 53/22/53 52/21/52 49/18/49 54/23/54 
f 55/24/55 54/23/54 49/18/49 48/19/48 
f 56/25/56 57/28/57 58/27/58 59/26/59 
f 47/16/47 59/26/59 58/27/58 48/19/48 
f 55/24/55 48/19/48 58/27/58 60/29/60 
f 61/30/61 60/29/60 58/27/58 57/28/57 
f 62/31/62 63/34/63 64/33/64 65/32/65 
f 56/25/56 65/32/65 64/33/64 57/28/57 
f 61/30/61 57/28/57 64/33/64 66/35/66 
f 67/36/67 66/35/66 64/33/64 63/34/63 
f 68/37/68 69/40/69 70/39/70 71/38/71 
f 62/31/62 71/38/71 70/39/70 63/34/63 
f 67/36/67 63/34/63 70/39/70 72/41/72 
f 73/42/73 72/41/72 70/39/70 69/40/69 
f 74/43/74 75/46/75 76/45/76 77/44/77 
f 68/37/68 77/44/77 76/45/76 69/40/69 
f 73/42/73 69/40/69 76/45/76 75/46/75 
# 46 polygons

