# 3ds Max Wavefront OBJ Exporter v0.97b - (c)2007 guruware
# File Created: 28.10.2017 16:23:47

mtllib start_btn.mtl

#
# object start_button001
#

v  0.0158 0.0047 -0.0040
v  0.0154 0.0046 0.0041
v  0.0154 -0.0042 0.0041
v  0.0158 -0.0044 -0.0040
v  0.0109 0.0124 -0.0040
v  0.0106 0.0121 0.0041
v  0.0026 0.0161 -0.0040
v  0.0026 0.0157 0.0041
v  -0.0064 0.0148 -0.0040
v  -0.0062 0.0145 0.0041
v  -0.0132 0.0089 -0.0040
v  -0.0129 0.0087 0.0041
v  -0.0158 0.0002 -0.0040
v  -0.0154 0.0002 0.0041
v  -0.0132 -0.0085 -0.0040
v  -0.0129 -0.0083 0.0041
v  -0.0064 -0.0145 -0.0040
v  -0.0062 -0.0141 0.0041
v  0.0026 -0.0158 -0.0040
v  0.0026 -0.0154 0.0041
v  0.0109 -0.0120 -0.0040
v  0.0106 -0.0117 0.0041
v  0.0076 0.0023 0.0061
v  0.0003 0.0002 0.0062
v  0.0076 -0.0019 0.0061
v  0.0053 0.0059 0.0061
v  0.0014 0.0077 0.0061
v  -0.0028 0.0071 0.0061
v  -0.0060 0.0043 0.0061
v  -0.0072 0.0002 0.0061
v  -0.0060 -0.0039 0.0061
v  -0.0028 -0.0067 0.0061
v  0.0014 -0.0073 0.0061
v  0.0053 -0.0055 0.0061
v  0.0126 0.0038 0.0057
v  0.0126 -0.0034 0.0057
v  0.0087 0.0099 0.0057
v  0.0022 0.0129 0.0057
v  -0.0050 0.0119 0.0057
v  -0.0105 0.0071 0.0057
v  -0.0125 0.0002 0.0057
v  -0.0105 -0.0067 0.0057
v  -0.0050 -0.0115 0.0057
v  0.0022 -0.0125 0.0057
v  0.0087 -0.0095 0.0057
# 45 vertices

vn 0.9603 0.2751 0.0461
vn 0.8309 0.2399 0.5020
vn 0.8258 -0.2507 0.5052
vn 0.9544 -0.2924 0.0607
vn 0.6557 0.7543 0.0335
vn 0.5679 0.6548 0.4988
vn 0.1423 0.9895 0.0272
vn 0.1233 0.8590 0.4970
vn -0.4156 0.9091 0.0293
vn -0.3601 0.7891 0.4976
vn -0.8426 0.5371 0.0393
vn -0.7294 0.4666 0.5003
vn -0.9985 -0.0095 0.0535
vn -0.8639 -0.0062 0.5037
vn -0.8327 -0.5496 0.0672
vn -0.7207 -0.4734 0.5064
vn -0.4075 -0.9100 0.0762
vn -0.3529 -0.7858 0.5080
vn 0.1393 -0.9872 0.0781
vn 0.1207 -0.8527 0.5083
vn 0.6450 -0.7607 0.0725
vn 0.5585 -0.6563 0.5074
vn 0.0471 -0.0072 0.9989
vn -0.0000 -0.0213 0.9998
vn 0.0470 -0.0352 0.9983
vn 0.0321 0.0163 0.9994
vn 0.0070 0.0278 0.9996
vn -0.0203 0.0238 0.9995
vn -0.0412 0.0056 0.9991
vn -0.0490 -0.0212 0.9986
vn -0.0411 -0.0480 0.9980
vn -0.0202 -0.0661 0.9976
vn 0.0069 -0.0700 0.9975
vn 0.0319 -0.0586 0.9978
vn 0.2971 0.0695 0.9523
vn 0.2948 -0.1065 0.9496
vn 0.2036 0.2190 0.9543
vn 0.0443 0.2929 0.9551
vn -0.1292 0.2676 0.9548
vn -0.2612 0.1511 0.9534
vn -0.3086 -0.0189 0.9510
vn -0.2572 -0.1862 0.9482
vn -0.1260 -0.2981 0.9462
vn 0.0431 -0.3222 0.9457
vn 0.1993 -0.2517 0.9471
# 45 vertex normals

g start_button001
usemtl Plastic_Black
s 2
f 1//1 2//2 3//3 4//4 
f 5//5 6//6 2//2 1//1 
f 7//7 8//8 6//6 5//5 
f 9//9 10//10 8//8 7//7 
f 11//11 12//12 10//10 9//9 
f 13//13 14//14 12//12 11//11 
f 15//15 16//16 14//14 13//13 
f 17//17 18//18 16//16 15//15 
f 19//19 20//20 18//18 17//17 
f 21//21 22//22 20//20 19//19 
f 4//4 3//3 22//22 21//21 
f 23//23 24//24 25//25 
f 26//26 24//24 23//23 
f 27//27 24//24 26//26 
f 28//28 24//24 27//27 
f 29//29 24//24 28//28 
f 30//30 24//24 29//29 
f 31//31 24//24 30//30 
f 32//32 24//24 31//31 
f 33//33 24//24 32//32 
f 34//34 24//24 33//33 
f 25//25 24//24 34//34 
f 2//2 35//35 36//36 3//3 
f 6//6 37//37 35//35 2//2 
f 8//8 38//38 37//37 6//6 
f 10//10 39//39 38//38 8//8 
f 12//12 40//40 39//39 10//10 
f 14//14 41//41 40//40 12//12 
f 16//16 42//42 41//41 14//14 
f 18//18 43//43 42//42 16//16 
f 20//20 44//44 43//43 18//18 
f 22//22 45//45 44//44 20//20 
f 3//3 36//36 45//45 22//22 
f 35//35 23//23 25//25 36//36 
f 37//37 26//26 23//23 35//35 
f 38//38 27//27 26//26 37//37 
f 39//39 28//28 27//27 38//38 
f 40//40 29//29 28//28 39//39 
f 41//41 30//30 29//29 40//40 
f 42//42 31//31 30//30 41//41 
f 43//43 32//32 31//31 42//42 
f 44//44 33//33 32//32 43//43 
f 45//45 34//34 33//33 44//44 
f 36//36 25//25 34//34 45//45 
# 33 polygons - 11 triangles

